<?xml version="1.0" standalone="no"?>
<!DOCTYPE svg PUBLIC "-//W3C//DTD SVG 20010904//EN"
 "http://www.w3.org/TR/2001/REC-SVG-20010904/DTD/svg10.dtd">
<svg version="1.0" xmlns="http://www.w3.org/2000/svg"
 width="900.000000pt" height="900.000000pt" viewBox="0 0 900.000000 900.000000"
 preserveAspectRatio="xMidYMid meet">
<metadata>
Created by potrace 1.11, written by Peter Selinger 2001-2013
</metadata>
<g transform="translate(0.000000,900.000000) scale(0.100000,-0.100000)"
fill="#000000" stroke="none">
<path d="M2470 6787 c-3 -2 -41 -7 -85 -11 -538 -43 -1070 -289 -1432 -660
-121 -125 -133 -139 -216 -254 -98 -137 -185 -297 -249 -457 -55 -138 -107
-322 -123 -440 -3 -22 -8 -47 -10 -55 -5 -17 -15 -109 -21 -185 -5 -74 -5
-322 1 -385 40 -423 175 -801 400 -1115 269 -376 648 -654 1095 -805 125 -42
281 -81 383 -95 23 -3 49 -8 57 -10 45 -12 198 -20 375 -20 239 0 336 9 520
46 389 80 730 248 989 489 91 85 106 100 106 108 0 12 -281 292 -293 292 -5 0
-26 -17 -46 -37 -54 -56 -186 -160 -276 -218 -199 -128 -469 -223 -705 -249
-30 -4 -73 -9 -95 -11 -47 -6 -327 -6 -370 0 -16 2 -55 6 -85 10 -124 13 -342
69 -465 118 -104 42 -296 147 -386 211 -108 77 -273 230 -347 322 -53 65 -172
244 -172 257 0 6 -6 18 -14 26 -31 35 -140 317 -160 413 -3 13 -7 34 -10 48
-32 147 -41 238 -41 430 0 181 6 245 35 383 58 277 158 498 329 732 24 33 99
114 165 180 230 228 510 384 841 469 60 15 213 40 315 51 62 7 319 7 365 0 17
-2 55 -6 85 -10 365 -38 736 -209 991 -458 l46 -45 149 149 148 148 -29 32
c-30 32 -88 87 -129 122 -12 10 -32 28 -46 39 -62 54 -227 156 -345 213 -160
78 -324 137 -480 171 -48 11 -234 44 -275 49 -59 7 -484 17 -490 12z"/>
<path d="M6880 6783 c-121 -12 -289 -40 -410 -67 -70 -16 -253 -74 -305 -96
-231 -98 -442 -223 -612 -362 -71 -58 -256 -251 -315 -328 -195 -254 -332
-543 -398 -840 -25 -113 -35 -170 -46 -265 -12 -110 -13 -129 -14 -270 -1
-173 5 -255 31 -415 109 -659 501 -1222 1079 -1548 237 -134 581 -248 835
-277 17 -2 62 -7 100 -12 87 -10 481 -10 555 0 286 40 438 78 660 167 102 40
375 194 410 230 3 3 25 21 50 40 51 39 210 190 210 200 0 3 -66 72 -146 153
l-146 146 -21 -22 c-27 -27 -111 -102 -157 -141 -114 -94 -325 -210 -485 -266
-91 -32 -278 -75 -370 -85 -27 -3 -63 -8 -80 -10 -39 -5 -354 -6 -380 -1 -11
2 -45 7 -75 10 -291 36 -583 143 -820 302 -122 81 -163 116 -285 240 -265 269
-414 580 -490 1024 -11 59 -13 391 -4 460 15 117 18 134 34 210 141 665 649
1182 1325 1350 130 32 186 42 325 56 54 5 286 5 361 -1 133 -9 370 -57 467
-94 12 -5 24 -9 27 -9 15 -2 186 -83 252 -120 88 -48 248 -166 325 -240 l51
-49 143 143 c79 78 145 146 147 152 4 12 -127 138 -213 204 -223 171 -470 288
-765 363 -68 18 -69 18 -140 31 -25 4 -47 8 -50 9 -3 1 -34 5 -70 10 -36 4
-74 10 -85 12 -28 5 -462 11 -505 6z"/>
</g>
</svg>
